# xmcd CD database file
#
# Track frame offsets:
#	150
#	22319
#	46188
#	62582
#	96082
#	122710
#	140695
#	175235
#	190511
#	205032
#	221213
#	243293
#
# Disc length: 3648 seconds
#
# Revision: 0
# Processed by: cddbd v1.5PL3 Copyright (c) Steve Scherf et al.
# Submitted via: CDex 1.50
#
DISCID=ac0e3e0c
DTITLE=The Backyard Blues Connection - Don't Let The Drinking Do The Thinking
DYEAR=2004
DGENRE=Blues
TTITLE0=Going Back Home
TTITLE1=CrossCutSaw
TTITLE2=Messin' With The Kid
TTITLE3=Stormy Monday Blues
TTITLE4=I Wonder Why
TTITLE5=Killing Floor
TTITLE6=Blind Willie Me Tell
TTITLE7=Don't Let The Drinkin' Do The Thinkin'
TTITLE8=Further On Up The Road
TTITLE9=Bit Off More Than I Could Chew
TTITLE10=Sweet Little Thing
TTITLE11=As The Years Go Passing By
EXTD=YEAR: 2004
EXTT0=
EXTT1=
EXTT2=
EXTT3=
EXTT4=
EXTT5=
EXTT6=
EXTT7=
EXTT8=
EXTT9=
EXTT10=
EXTT11=
PLAYORDER=
